IKResults
version=1
nRows=6
nColumns=63
inDegrees=yes

Units are S.I. units (second, meters, Newtons, ...)
If the header above contains a line with 'inDegrees', this indicates whether rotational values are in degrees (yes) or radians (no).

endheader
time	pelvis_tilt	pelvis_list	pelvis_rotation	pelvis_tx	pelvis_ty	pelvis_tz	hip_flexion_r	hip_adduction_r	hip_rotation_r	knee_angle_r	knee_angle_r_beta	ankle_angle_r	subtalar_angle_r	mtp_angle_r	hip_flexion_l	hip_adduction_l	hip_rotation_l	knee_angle_l	knee_angle_l_beta	ankle_angle_l	subtalar_angle_l	mtp_angle_l	L5_S1_Flex_Ext	L5_S1_Lat_Bending	L5_S1_axial_rotation	L4_L5_Flex_Ext	L4_L5_Lat_Bending	L4_L5_axial_rotation	L3_L4_Flex_Ext	L3_L4_Lat_Bending	L3_L4_axial_rotation	L2_L3_Flex_Ext	L2_L3_Lat_Bending	L2_L3_axial_rotation	L1_L2_Flex_Ext	L1_L2_Lat_Bending	L1_L2_axial_rotation	L1_T12_Flex_Ext	L1_T12_Lat_Bending	L1_T12_axial_rotation	Abs_r3	Abs_r2	Abs_r1	Abs_t1	Abs_t2	neck_flexion	neck_bending	neck_rotation	arm_flex_r	arm_add_r	arm_rot_r	elbow_flex_r	pro_sup_r	wrist_flex_r	wrist_dev_r	arm_flex_l	arm_add_l	arm_rot_l	elbow_flex_l	pro_sup_l	wrist_flex_l	wrist_dev_l
      2.03333333	    -84.97096790	    -46.26872516	   -101.72361983	     -0.68390250	      0.32328560	     -0.28283047	     64.42772444	      9.27689010	     14.26783032	     85.13347432	      1.48585943	     42.47717011	    -19.71527874	      0.00000000	    106.54787806	     -9.76542263	     19.24156854	     43.27314302	      0.75525882	      0.00000000	      0.00000000	      0.00000000	      7.70937311	      0.44815137	      3.43514044	     14.31707680	      0.59604133	      3.64983672	     12.66572908	      1.08963525	      3.64983672	      8.81104252	      1.08963525	      3.00574789	      7.15892387	      0.91387028	      2.79105161	      4.40513579	      0.69418648	      2.57635533	     55.06728117	      5.06957798	     19.10522059	      0.00000000	      0.00000000	     -2.75998732	      0.59021657	     12.48497594	     10.46808990	     17.16885363	     31.01726484	     22.18004266	     89.99559364	      0.00000000	      0.00000000	   -243.70050082	     13.52532213	   -375.19644234	     29.28070320	     89.99559364	      0.00000000	      0.00000000
      2.06666667	    -84.81371087	    -47.76926734	   -102.24617858	     -0.68190315	      0.32291554	     -0.27992570	     63.37512359	     11.41934369	     11.88001141	     87.98669288	      1.53565749	     44.08163789	    -19.61568476	      0.00000000	    105.21610336	    -10.27340802	     22.45592724	     42.50080305	      0.74177895	      0.00000000	      0.00000000	      0.00000000	      7.46046978	      0.45888038	      3.63842656	     13.85483844	      0.61031091	      3.86582822	     12.25680581	      1.11572176	      3.86582822	      8.52657092	      1.11572176	      3.18362324	      6.92779224	      0.93574887	      2.95622158	      4.26291243	      0.71080571	      2.72881992	     53.28938962	      5.19094663	     20.23583701	      0.00000000	      0.00000000	     -2.53546158	      0.47663356	     13.19760906	     12.68614369	     16.07010104	     39.57390506	     21.72172327	     89.99559364	      0.00000000	      0.00000000	   -242.35666697	     14.94498882	   -384.70584534	     28.18839235	     89.99559364	      0.00000000	      0.00000000
      2.10000000	    -84.53515721	    -49.33371502	   -102.68405425	     -0.68093169	      0.32270646	     -0.27667509	     61.27529387	     13.37197342	      9.32679435	     90.04207974	      1.57153076	     44.43469583	    -19.42387729	      0.00000000	    103.66867145	    -11.09304605	     24.44268356	     41.91943208	      0.73163211	      0.00000000	      0.00000000	      0.00000000	      7.17908971	      0.45634887	      3.87383423	     13.33228751	      0.60694400	      4.11594887	     11.79452649	      1.10956665	      4.11594887	      8.20498163	      1.10956665	      3.38960495	      6.66650271	      0.93058662	      3.14749031	      4.10213186	      0.70688441	      2.90537567	     51.27951991	      5.16230973	     21.54510385	      0.00000000	      0.00000000	     -2.02487874	      0.34942636	     13.96392276	     14.92486074	     15.18510407	     47.04803237	     21.49953284	     89.99559364	      0.00000000	      0.00000000	   -240.77327130	     15.94249090	   -392.60612781	     27.15477943	     89.99559364	      0.00000000	      0.00000000
      2.13333333	    -83.63336386	    -50.61246423	   -102.26310434	     -0.68059029	      0.32209218	     -0.27305314	     58.57155450	     14.57773166	      6.90645289	     91.25893184	      1.59276883	     43.40722867	    -19.15496119	      0.00000000	    102.08330232	    -11.57092176	     25.69095270	     41.42025847	      0.72291989	      0.00000000	      0.00000000	      0.00000000	      6.93449930	      0.39136564	      4.10359960	     12.87805866	      0.52051630	      4.36007458	     11.39268891	      0.95156641	      4.36007458	      7.92543925	      0.95156641	      3.59064965	      6.43937605	      0.79807281	      3.33417468	      3.96237290	      0.60622537	      3.07769970	     49.53243507	      4.42720635	     22.82298991	      0.00000000	      0.00000000	     -1.37322075	      0.38822474	     14.96927409	     16.41938972	     14.84160745	     49.72831226	     21.53559973	     89.99559364	      0.00000000	      0.00000000	   -239.29953288	     15.94953475	   -395.28000064	     25.73264758	     89.99559364	      0.00000000	      0.00000000
      2.16666667	    -84.81065558	    -53.10739117	   -104.81350469	     -0.68181756	      0.32139758	     -0.27135576	     53.74725504	     17.22587167	      4.86832838	     91.47249287	      1.59649618	     40.39908955	    -19.15001073	      0.00000000	     99.66964686	    -13.39590365	     26.93141593	     41.61456447	      0.72631117	      0.00000000	      0.00000000	      0.00000000	      6.43828396	      0.55169629	      4.44239855	     11.95653714	      0.73375607	      4.72004846	     10.57745672	      1.34139436	      4.72004846	      7.35831474	      1.34139436	      3.88709873	      5.97859048	      1.12501908	      3.60944882	      3.67883545	      0.85457755	      3.33179891	     45.98801849	      6.24089878	     24.70728803	      0.00000000	      0.00000000	     -0.67760151	     -0.58851628	     16.27639122	     19.94116728	     12.96000526	     62.71854830	     21.79632450	     89.99559364	      0.00000000	      0.00000000	   -237.85435553	     17.47664513	   -406.40535632	     26.71432900	     89.99559364	      0.00000000	      0.00000000
      2.20000000	    -84.08577043	    -53.58544611	   -104.52355753	     -0.68194692	      0.32013090	     -0.26853783	     50.43314128	     18.19668650	      3.33754394	     90.67127650	      1.58251231	     36.00329136	    -19.37966300	      0.00000000	     98.36253244	    -13.84521389	     27.60556084	     40.92039638	      0.71419565	      0.00000000	      0.00000000	      0.00000000	      6.34470721	      0.51066705	      4.65552173	     11.78275577	      0.67918717	      4.94649183	     10.42371948	      1.24163585	      4.94649183	      7.25136587	      1.24163585	      4.07358151	      5.89169512	      1.04135224	      3.78261140	      3.62536570	      0.79102325	      3.49164129	     45.31960915	      5.77676775	     25.89261519	      0.00000000	      0.00000000	     -0.66355846	     -0.45476473	     16.88984843	     20.65497517	     12.46682030	     63.55623324	     22.39978076	     89.99559364	      0.00000000	      0.00000000	   -237.16331439	     17.42215965	   -407.11965968	     25.79540748	     89.99559364	      0.00000000	      0.00000000
